<svg width="512" height="512" viewBox="0 0 512 512" xmlns="http://www.w3.org/2000/svg"><title>close</title>
  <path
    d="M155.693 392.663c-9.763 9.763-25.592 9.763-35.355 0-9.763-9.763-9.763-25.592 0-35.355l236.485-236.485c9.763-9.763 25.592-9.763 35.355 0 9.763 9.763 9.763 25.592 0 35.355L155.693 392.663z"/>
  <path
    d="M392.177 357.307c9.763 9.763 9.763 25.592 0 35.355-9.763 9.763-25.592 9.763-35.355 0L120.337 156.177c-9.763-9.763-9.763-25.592 0-35.355 9.763-9.763 25.592-9.763 35.355 0l236.485 236.485z"/>
</svg>
